Coordinates
version=1
nRows=4
nColumns=63
inDegrees=yes

Units are S.I. units (second, meters, Newtons, ...)
If the header above contains a line with 'inDegrees', this indicates whether rotational values are in degrees (yes) or radians (no).

endheader
time	pelvis_tilt	pelvis_list	pelvis_rotation	pelvis_tx	pelvis_ty	pelvis_tz	hip_flexion_r	hip_adduction_r	hip_rotation_r	knee_angle_r	knee_angle_r_beta	ankle_angle_r	subtalar_angle_r	mtp_angle_r	hip_flexion_l	hip_adduction_l	hip_rotation_l	knee_angle_l	knee_angle_l_beta	ankle_angle_l	subtalar_angle_l	mtp_angle_l	L5_S1_Flex_Ext	L5_S1_Lat_Bending	L5_S1_axial_rotation	L4_L5_Flex_Ext	L4_L5_Lat_Bending	L4_L5_axial_rotation	L3_L4_Flex_Ext	L3_L4_Lat_Bending	L3_L4_axial_rotation	L2_L3_Flex_Ext	L2_L3_Lat_Bending	L2_L3_axial_rotation	L1_L2_Flex_Ext	L1_L2_Lat_Bending	L1_L2_axial_rotation	L1_T12_Flex_Ext	L1_T12_Lat_Bending	L1_T12_axial_rotation	Abs_r3	Abs_r2	Abs_r1	Abs_t1	Abs_t2	neck_flexion	neck_bending	neck_rotation	arm_flex_r	arm_add_r	arm_rot_r	elbow_flex_r	pro_sup_r	wrist_flex_r	wrist_dev_r	arm_flex_l	arm_add_l	arm_rot_l	elbow_flex_l	pro_sup_l	wrist_flex_l	wrist_dev_l
      0.00000000	     10.59198029	     -2.78207818	     95.44002383	      0.28940577	      0.92143761	      0.60803031	     -0.35543399	      8.62551776	     17.70379013	      5.63498735	      0.09834908	     36.63137930	    -13.71003295	      0.00000000	      0.99773057	    -10.13657690	     -1.14206005	      9.51391141	      0.16604908	     40.12407997	     -1.38060483	      0.00000000	      0.18792074	      1.01286438	     -2.91698903	      0.34898760	      1.34710963	     -3.09930085	      0.30873498	      2.46267846	     -3.09930085	      0.21477461	      2.46267846	     -2.55236540	      0.17450320	      2.06543305	     -2.37005359	      0.10737791	      1.56892693	     -2.18774177	      1.34229904	     11.45772447	    -16.22341790	      0.00000000	      0.00000000	     18.74906329	      3.34445888	     10.83280411	      1.07068079	    -11.75661682	     34.80487482	     70.87714594	      1.77968929	    -42.08073045	     23.84311796	      1.66234907	     -8.90665420	     30.81993659	     64.28833736	     86.74535431	     15.51375055	     21.38774118
      0.01694915	      9.85431222	     -2.39761441	     94.29065055	      0.29012754	      0.92209051	      0.60634194	     -1.04584470	      7.86971333	     17.85017873	      6.08490515	      0.10620163	     36.25570247	    -13.08063605	      0.00000000	     -0.02871614	     -9.25584491	     -0.81050948	      8.84050479	      0.15429592	     39.79749283	     -2.74169224	      0.00000000	      0.18461349	      0.91695080	     -2.72214826	      0.34284571	      1.21954457	     -2.89228253	      0.30330150	      2.22947418	     -2.89228253	      0.21099476	      2.22947418	     -2.38187973	      0.17143209	      1.86984608	     -2.21174546	      0.10548815	      1.42035679	     -2.04161119	      1.31867570	     10.37273087	    -15.13977197	      0.00000000	      0.00000000	     17.37693511	      3.80239736	     10.60157983	     -0.10714717	    -12.26788098	     36.81465818	     70.14956240	      1.64357532	    -42.65148495	     24.78917393	      1.16158793	     -9.78742848	     32.22202970	     64.26824235	     86.97475878	     17.85966604	     24.16544715
      0.03389831	      9.50114935	     -2.27518942	     93.74342987	      0.29004604	      0.92228865	      0.60468744	     -1.44706387	      7.45742303	     17.88782203	      6.28009891	      0.10960840	     35.84042923	    -12.85467842	      0.00000000	     -0.46953212	     -8.78354857	     -0.70397858	      8.59923871	      0.15008503	     39.64028554	     -3.48540374	      0.00000000	      0.22311058	      0.87721441	     -2.62959019	      0.41433866	      1.16669517	     -2.79393958	      0.36654837	      2.13285912	     -2.79393958	      0.25499308	      2.13285912	     -2.30089142	      0.20718048	      1.78881563	     -2.13654203	      0.12748538	      1.35880512	     -1.97219264	      1.59365655	      9.92322488	    -14.62499177	      0.00000000	      0.00000000	     16.39062512	      3.85388006	     10.57993906	     -0.97970511	    -12.75085803	     38.32775275	     69.64987007	      1.55880737	    -43.19817368	     25.38694885	      0.50636133	    -10.34532055	     33.46873918	     64.28292458	     87.21168356	     19.06400266	     25.38756528
      0.05084746	      9.17281349	     -2.00269120	     92.92091464	      0.29083315	      0.92255887	      0.60340276	     -1.94340612	      7.10035844	     18.29883941	      6.44351029	      0.11246047	     35.70933903	    -12.64119179	      0.00000000	     -1.11728100	     -8.35162173	     -0.51706781	      8.45170510	      0.14751008	     39.22927824	     -4.86431872	      0.00000000	      0.20656801	      0.82805914	     -2.49572048	      0.38361746	      1.10131865	     -2.65170301	      0.33937059	      2.01334299	     -2.65170301	      0.23608658	      2.01334299	     -2.18375542	      0.19181906	      1.68857819	     -2.02777289	      0.11803296	      1.28266361	     -1.87179036	      1.47549465	      9.36717058	    -13.88044858	      0.00000000	      0.00000000	     16.33016679	      4.23035194	     10.28013597	     -1.28499694	    -12.92403476	     39.56152472	     69.27629459	      1.51250348	    -44.11651982	     26.21994678	     -0.25019430	    -10.80397868	     33.84333341	     64.49432941	     87.24863569	     20.56559596	     26.48787104
